<svg xmlns="http://www.w3.org/2000/svg" viewBox="0 0 24 24"><path d="M11.7.3a6.6 6.6 0 0 0-2.4.6 6.4 6.4 0 0 0-3.2 3c-.4 1-.6 2-.6 3 0 1.2.3 2 .8 3l.7 1 .1.2v.1l-.1.1-1.4 1c-.9.5-1 .7-1.4 1-.6.3-.8.5-.9.7V14.3c.3.4.6.8 1.4 1.4l1.4 1.2c.4.3.5.8.3 1.7v.5a3.6 3.6 0 0 0 0 1c0 .5.3 1 .6 1.5l.2.3v.1c0 .2-.1.3-.4.6a5.6 5.6 0 0 0-.2.5c-.1.1-.1.3 0 .4l.3.3H14l1.2-.1 2.2-.1c.2 0 .3-.1.4-.3 0-.2 0-.4-.4-.8l-.3-.6c0-.1 0-.3.2-.4l.5-.7c.2-.5.2-1.2 0-2v-.5c.3-.2.4-.3.5-.6.2-.4.2-.7.3-1.4 0-.7 0-.6.7-2.5l.2-.6v-.4c-.1-.4-.4-.8-1.2-1.5a27 27 0 0 1-1-1l.2-.2a7 7 0 0 0 .9-2.4v-2a6 6 0 0 0-.7-2 6 6 0 0 0-1.2-1.5A6.3 6.3 0 0 0 13.4.4a6.4 6.4 0 0 0-1.7-.1zm1 1A5.6 5.6 0 0 1 16 2.9a5.3 5.3 0 0 1 1.6 4.7 5.7 5.7 0 0 1-1.4 2.9 5.6 5.6 0 0 1-2 1.3 7 7 0 0 1-1.2.3H10.8c-.2 0-.3.3-.4.7a66 66 0 0 1-.7 2.1l-.3.6-.1.3H9a17 17 0 0 1-.6-.3 2.3 2.3 0 0 1 .1-.3c0-.3.2-.6.5-1.3l.3-.9.3-.6.1-.6c0-.1 0-.2-.4-.4A6 6 0 0 1 8 10.1a5.4 5.4 0 0 1-.7-5.7l1-1.5c.9-.9 2-1.5 3.2-1.6a7.8 7.8 0 0 1 1.3 0zm4 14.6.5.4c.3.3.4.6.1.8-.2.2-.6.3-1 .3H16c-.2-.3-.3-1.2 0-1.5h.6zm-8.6.4c.4.1.9.3 1.2.6.2.2.2.3-.2.3h-1c-.4 0-.7-.3-.9-.5 0-.2 0-.4.2-.5H8zm9.2 3v1.1l-.5.8c-.6.6-1.5 1.1-2.2 1.3h-.8c-.6-.2-1-.6-1.1-1.3a4.4 4.4 0 0 1 0-.7v-.1l.6.7c.4.6.8.9 1 .9.4 0 .9-.2 1.7-.7l1-1 .1-.2V19a.6.6 0 0 1 .2.2zM7.8 21c.6 1 1 1.2 1.8 1.2.5 0 1-.2 1.3-.4l1-.7c0-.2.2-.3.2-.3V21.7c-.1.4-1 .7-2 .6l-1.5-.1c-.2 0-.3-.2-.4-.4a8 8 0 0 0-.3-.4 14 14 0 0 1-.3-.5l-.3-.6.5.7zm0 0"/><path d="M14.2 3.5a2.1 2.1 0 0 0-.6.2h-.2a.2.2 0 0 1 0 .1 1.4 1.4 0 0 0-.4.3l-.1.1-.3.7v1.3s.1 0 0 0a.5.5 0 0 0 .2.2v.2a2 2 0 0 0 .5.5l.5.2h1.3a.6.6 0 0 1 .2-.1l.4-.3.4-.6a.8.8 0 0 0 .1-.2V6a2.1 2.1 0 0 0 0-1.1s0-.3-.2-.4v-.2h-.1l-.6-.6a1 1 0 0 0-.2 0 .6.6 0 0 0 0-.1 2 2 0 0 0-1 0zm.4.6h.1a.8.8 0 0 0 .1 0l.3.2.3.3.1.1v.1l.2.4V6c0 .1-.1.4-.2.3l-.3.3v.1a.2.2 0 0 0-.1 0 1 1 0 0 1-.3.1 2.5 2.5 0 0 1 0-.2 1.2 1.2 0 0 0 0-.2.4.4 0 0 1 0-.2.2.2 0 0 0-.1 0V6l-.3-.3h-.7a2.1 2.1 0 0 0-.2.2l-.2.3a2.2 2.2 0 0 1-.3-.6v-.4l.4-.7.5-.3h.1l.6-.1zm-5.1-.4a1.6 1.6 0 0 0-.2 0 2.1 2.1 0 0 0-.5.2l-.7.6a.4.4 0 0 1 0 .1 1.3 1.3 0 0 0-.2.3l-.1.7a2.2 2.2 0 0 0 0 .6v.1l.1.1a1.8 1.8 0 0 0 .7.8l.6.3h1l.6-.2.3-.3c.3-.3.5-.7.5-1.3v-.3a2.1 2.1 0 0 1 0-.2s-.1 0-.1-.1a.6.6 0 0 0 0-.2l-.3-.5a3.4 3.4 0 0 0-.4-.4h-.2v-.1l-.2-.1a2 2 0 0 0-1-.1zm.5.6h.1c.3 0 .6.4.8.6a1.2 1.2 0 0 1 0 .3l.1.8a1.1 1.1 0 0 1-.2.3l-.2-.4h-.1v-.1h-.1l-.3-.2a.1.1 0 0 1-.1 0 .6.6 0 0 0-.2 0l-.4.2-.1.1-.1.2v.7H9a.9.9 0 0 0-.2 0l-.3-.4a.4.4 0 0 0-.1 0l-.1-.5a1.5 1.5 0 0 1 0-.9 1 1 0 0 0 .1-.2h.1l.1-.2.4-.2c.2-.1.7-.2.9-.1zm0 0"/></svg>